<svg width="357" height="84" viewBox="0 0 357 84" fill="none" xmlns="http://www.w3.org/2000/svg">
<g opacity="0.8" clip-path="url(#clip0_2_5)">
<path d="M224.122 4.96154C218.075 4.96154 213.761 9.07692 213.761 14.7692C213.761 19.1923 216.765 21.8846 221.618 21.8846C227.434 21.8846 231.863 17.6923 231.863 11.9615C231.863 7.65385 228.859 4.96154 224.122 4.96154ZM212.143 29.7692L202.823 82.5769H218.383L227.665 29.7692H212.143ZM180.907 50.3462C177.235 49.0641 174.976 48.2051 174.128 47.7692C172.703 46.8846 171.972 45.8077 171.972 44.3077C171.972 41.1923 174.976 39.2308 179.944 39.2308C184.913 39.2308 188.803 40.5385 193.232 43.4615L199.587 33.5385C194.311 30.0769 187.493 28.3462 179.521 28.3462C166.233 28.3462 157.836 34.7308 157.836 44.9615C157.836 49.2692 159.647 53.2692 162.766 55.8462C165.578 58.2308 168.39 59.5 176.478 62C180.291 63.1923 181.678 64.4615 181.678 66.7308C181.678 70.9231 178.134 73.0769 171.201 73.0769C165.039 73.0769 159.993 71.8077 156.18 69.3077L149.594 79.7692C155.217 82.5769 162.458 84 171.741 84C180.484 84 186.415 82.3846 190.305 79.0385C193.887 76 195.928 71.3846 195.928 66.4231C195.928 58.4231 192.154 54.3462 180.907 50.3462ZM338.975 28.3462C331.849 28.3462 327.651 29.9615 322.221 34.9231L322.336 29.7692H308.432L299.15 82.5769H314.671L319.216 57.0385C321.258 44.9615 325.148 40.4231 333.236 40.4231C338.436 40.4231 341.247 43 341.247 47.6538C341.247 49.3846 340.901 52.1923 340.361 55.3077L335.508 82.5769H351.069L355.498 57.2692C356.461 52.2692 357 46.8846 357 43.8846C357 33.9615 350.529 28.3462 338.975 28.3462ZM8.08825 33.3462L5.23811 50.6538H21.4531L24.3033 33.3462H8.08825ZM13.596 0L10.0525 21.5769H26.229L29.7725 0H13.596ZM3.31233 62.3846L0 82.5769H16.1765L19.5273 62.3846H3.31233ZM45.8719 0L31.2746 82.5769H46.8348L61.4322 0H45.8719ZM133.841 29.7692L129.335 55.3077C128.334 61.1154 127.255 64.4615 125.637 66.9615C123.481 70.1923 120.13 71.9231 115.932 71.9231C110.963 71.9231 108.498 69.7692 108.498 65.4231C108.498 63.5 108.806 60.5769 109.345 57.4615L114.198 29.7692H98.7537L94.2474 55.4231C93.3615 60.1538 92.7068 66.0769 92.7068 69C92.7068 78.6923 98.8692 84 110.116 84C117.126 84 121.016 82.4615 126.177 77.4231V82.5769H140.004L149.402 29.7692H133.841ZM75.1052 0L60.5463 82.5769H76.1066L90.6654 0H75.1052ZM266.643 28.3462C246.576 28.3462 233.481 41.0769 233.481 60.5C233.481 75.1538 243.533 84 260.48 84C280.239 84 293.295 71.1538 293.295 51.7692C293.295 37.4231 283.05 28.3462 266.643 28.3462ZM284.321 51.9615L282.588 60.0769H276.734L271.881 71.0769H263.022L262.637 57.8077L256.629 71.0769H247.77L247.577 60.0769H241.685L243.418 51.9615H247.462L247.308 41.2692H256.821L256.089 55.3077L262.329 41.2692H270.071L270.302 55.2308L275.54 41.2692H285.053L280.316 51.9615H284.321Z" fill="white"/>
</g>
<defs>
<clipPath id="clip0_2_5">
<rect width="357" height="84" fill="white"/>
</clipPath>
</defs>
</svg>
