<?xml version="1.0" encoding="UTF-8"?>
<svg id="Layer_2" data-name="Layer 2" xmlns="http://www.w3.org/2000/svg" viewBox="0 0 512.91 512.92">
  <defs>
    <style>
      .cls-1 {
        fill: #fff;
      }

      .cls-2 {
        fill: #5c9e31;
      }

      .cls-3 {
        fill: #212121;
      }
    </style>
  </defs>
  <g id="emoji">
    <g>
      <g id="color">
        <rect class="cls-1" x="184.93" y="125.14" width="200" height="317.57" transform="translate(-117.31 284.63) rotate(-45)"/>
        <path class="cls-1" d="m16.43,496.51c4.05,4.05,9.48,5.77,14.72,5.19,0,0,98.91.57,155.13-53.36.71-.62,1.38-1.29,2.05-1.95,20.39-20.39,20.34-53.41,0-73.75-20.34-20.34-53.36-20.39-73.75,0l-98.15,98.15c-7.1,7.1-7.1,18.63,0,25.73Z"/>
        <path class="cls-1" d="m107.17,454.74c1.33,9-4,22-14.56,33.11-3.22,3.33-6.56,6.22-10,8.44"/>
        <path class="cls-1" d="m60.73,484.08c-.89,6.44-4,12.33-8.89,16.56"/>
        <circle class="cls-2" cx="243.63" cy="133.98" r="25.87"/>
        <circle class="cls-2" cx="439.72" cy="325.21" r="25.87"/>
        <circle class="cls-2" cx="131.31" cy="246.31" r="25.87" transform="translate(-135.71 164.99) rotate(-45)"/>
        <circle class="cls-2" cx="323.09" cy="438.09" r="25.87"/>
        <rect class="cls-2" x="337.75" y="67.55" width="18.56" height="303.65" transform="translate(-53.48 309.64) rotate(-45)"/>
        <rect class="cls-2" x="207.25" y="192.81" width="18.56" height="303.65" transform="translate(-180.28 254.05) rotate(-45)"/>
        <rect class="cls-2" x="79.47" y="169.22" width="203.28" height="18.77" transform="translate(-73.25 180.38) rotate(-45)"/>
        <rect class="cls-2" x="288.72" y="378.46" width="203.28" height="18.77" transform="translate(-159.92 389.62) rotate(-45)"/>
        <ellipse class="cls-2" cx="284.44" cy="281.95" rx="63.8" ry="103.08" transform="translate(-116.06 283.71) rotate(-45)"/>
        <path class="cls-1" d="m388.05,256.67l-130.36,130.36c-.47.47-.98.81-1.55,1.1-2.29,1.12-5.24.64-7.22-1.34l-69.14-69.14c-1.98-1.98-2.46-4.93-1.34-7.22.29-.56.63-1.08,1.1-1.55l130.36-130.36c.47-.47.99-.81,1.55-1.1,2.29-1.12,5.24-.64,7.22,1.34l69.14,69.14c1.98,1.98,2.46,4.93,1.34,7.22-.29.56-.63,1.08-1.1,1.55Z"/>
        <path class="cls-1" d="m496.5,16.44c4.05,4.05,5.77,9.48,5.19,14.72,0,0,.57,98.91-53.36,155.13-.62.71-1.29,1.38-1.95,2.05-20.39,20.39-53.41,20.34-73.75,0-20.34-20.34-20.39-53.36,0-73.75l98.15-98.15c7.1-7.1,18.63-7.1,25.73,0Z"/>
        <path class="cls-1" d="m454.73,107.18c9,1.33,22-4,33.11-14.56,3.33-3.22,6.22-6.56,8.44-10"/>
        <path class="cls-1" d="m484.07,60.74c6.44-.89,12.33-4,16.56-8.89"/>
      </g>
      <g>
        <path class="cls-3" d="m151.47,346.25h-.03c-16.89,0-32.78,6.58-44.73,18.53L8.57,462.92c-11.42,11.43-11.42,30.02,0,41.44h0c5.53,5.53,12.89,8.56,20.58,8.56.84,0,1.68-.04,2.53-.11,2.31,0,9.94-.11,20.98-1.1.11,0,.21-.02.32-.03,33.53-3.04,97.99-14.21,140.8-55.14.93-.83,1.75-1.64,2.4-2.29,11.96-11.96,18.54-27.85,18.53-44.76,0-16.89-6.59-32.77-18.53-44.71-11.94-11.94-27.82-18.52-44.71-18.53Zm28.99,92.29c-.53.53-1.04,1.04-1.45,1.4l-.42.38c-18.4,17.65-42.01,29.1-64.91,36.53,3.91-8.25,5.56-16.54,4.5-23.74-.9-6.07-6.55-10.27-12.62-9.36-6.07.9-10.26,6.55-9.36,12.62.74,4.99-3.02,14.77-11.55,23.76-2.12,2.2-4.19,4.04-6.16,5.52-2.37.43-4.68.83-6.93,1.19.07-.41.14-.83.2-1.25.84-6.08-3.41-11.69-9.49-12.53-6.07-.84-11.69,3.41-12.53,9.49-.37,2.69-1.4,5.18-2.94,7.26-9.23.74-15.03.77-15.54.77h-.67s-.63.07-.63.07c-1.23.13-3.6.05-5.66-2.01-2.76-2.76-2.76-7.25,0-10.01l98.15-98.15c7.75-7.75,18.05-12.02,29.01-12.02h.02c10.96,0,21.26,4.27,29.01,12.02s12.02,18.05,12.02,29.01c0,10.96-4.26,21.28-12.03,29.04Z"/>
        <path class="cls-3" d="m258.95,103.21c-4.2-4.2-9.78-6.51-15.71-6.51s-11.52,2.31-15.71,6.51l-124.92,124.92c-4.2,4.2-6.51,9.78-6.51,15.71s2.31,11.52,6.51,15.71l206.81,206.81c4.2,4.2,9.78,6.51,15.71,6.51s11.52-2.31,15.71-6.51l124.92-124.92c4.2-4.2,6.51-9.78,6.51-15.71s-2.31-11.52-6.51-15.71l-206.81-206.81Zm-67.97,209.93l123.18-123.18,62.44,62.44-123.18,123.18-62.44-62.44Zm52.25-194.21l55.27,55.27-124.91,124.92-55.27-55.27,124.92-124.92Zm81.9,331.73s0,0-.01,0l-57.68-57.68,124.92-124.92,57.68,57.68-124.91,124.92Z"/>
        <path class="cls-3" d="m512.8,31.69c.74-8.59-2.32-16.98-8.45-23.11h0c-5.53-5.53-12.89-8.58-20.72-8.58-7.83,0-15.19,3.05-20.72,8.58l-98.15,98.15c-11.96,11.96-18.54,27.85-18.53,44.76,0,16.89,6.59,32.77,18.53,44.71s27.82,18.52,44.71,18.53h.03c16.89,0,32.78-6.58,44.78-18.58.68-.69,1.45-1.46,2.25-2.35,40.84-42.73,52.05-107.01,55.12-140.59,0-.03,0-.05,0-.08,1.03-11.28,1.14-19.08,1.14-21.42Zm-72.49,146.9l-.39.42c-.34.4-.84.89-1.41,1.46-7.75,7.75-18.05,12.02-29.01,12.02h-.02c-10.96,0-21.26-4.27-29.01-12.02-7.75-7.75-12.02-18.05-12.02-29.01,0-10.96,4.26-21.27,12.02-29.03l98.15-98.15c1.34-1.34,3.11-2.07,5.01-2.07s3.67.73,5.01,2.07h0c2.06,2.06,2.14,4.43,2,5.66l-.07.63v.64c0,.23,0,6.09-.75,15.56-2.09,1.55-4.58,2.58-7.28,2.95-6.08.84-10.33,6.45-9.49,12.52.77,5.56,5.53,9.59,10.99,9.59.5,0,1.02-.03,1.53-.11.43-.06.86-.13,1.29-.21-.36,2.23-.75,4.53-1.18,6.87-1.48,1.99-3.33,4.06-5.5,6.16-9.06,8.6-18.85,12.36-23.83,11.62-6.08-.9-11.72,3.29-12.62,9.36-.9,6.07,3.29,11.72,9.36,12.62,1.43.21,2.91.32,4.43.32,6.09,0,12.74-1.7,19.37-4.85-7.43,22.9-18.89,46.51-36.58,64.95Z"/>
      </g>
    </g>
  </g>
</svg>