<?xml version="1.0" encoding="UTF-8"?>
<svg id="Layer_2" data-name="Layer 2" xmlns="http://www.w3.org/2000/svg" viewBox="0 0 799.38 695.82">
  <defs>
    <style>
      .cls-1 {
        fill: #94d5d2;
      }

      .cls-2 {
        fill: #e6d488;
      }

      .cls-3 {
        fill: #576065;
      }

      .cls-4 {
        fill: #d6d6d6;
      }

      .cls-5 {
        fill: #ffdac6;
      }

      .cls-6 {
        fill: #ffeb97;
      }
    </style>
  </defs>
  <g id="Layer_1-2" data-name="Layer 1">
    <g id="hand-coins">
      <g id="hand-coins-2">
        <g id="fill">
          <rect class="cls-1" x="16" y="339.29" width="165.87" height="298.49"/>
          <path class="cls-5" d="m202.49,400c148.27,2.13,183.47,72.53,222.22,72.53s156.53-14.49,143.02,60.09c53.33,15.2,125.42-84.98,160.71-84.98s56,18.67,56,58.04c0,52.89-227.02,174.13-321.33,174.13s-223.11-91.91-266.84-91.91"/>
          <circle class="cls-6" cx="563.29" cy="339.29" r="57.96"/>
          <circle class="cls-2" cx="397.42" cy="206.58" r="57.96"/>
          <circle class="cls-4" cx="563.29" cy="73.96" r="57.96"/>
        </g>
        <g>
          <path class="cls-3" d="m727.38,431.47c-20.27,0-41.96,17.42-68.62,39.56-23.91,19.91-52.71,43.11-75.11,46.58-.43-12.32-5.08-24.11-13.16-33.42-27.82-32-89.6-29.78-130.4-28.27-6.4.44-12,.44-16.44.44-8.36,0-19.64-7.56-33.96-16.44-33.87-21.69-85.16-54.67-187.64-56.09-1.45,0-2.84.21-4.18.57v-45.37c0-8.84-7.16-16-16-16H16c-8.84,0-16,7.16-16,16v298.76c0,8.84,7.16,16,16,16h165.87c8.84,0,16-7.16,16-16v-34.16c15.1,1.11,48.57,16.94,80.98,32.2,56.53,26.76,127.02,60,183.82,60,88.44,0,337.33-120,336.71-190.31,0-47.38-26.22-74.04-72-74.04ZM32,478.04h133.87v29.96H32v-29.96Zm133.87-32H32v-30.04h133.87v30.04Zm-133.87,93.96h133.87v29.96H32v-29.96Zm133.87-184.89v28.89H32v-28.89h133.87ZM32,621.78v-19.82h133.87v19.82H32Zm430.67,42.22c-49.6,0-116.8-31.56-170.13-56.89-40.84-19.51-73.22-34.78-94.67-35.52v-156.34c1.33.36,2.73.57,4.18.57,93.33,1.33,138.13,30.13,170.84,51.11,18.67,12,33.42,21.51,51.2,21.51,4.98,0,10.93-.44,17.78-.44,30.58-1.16,87.29-3.2,105.07,17.24,3.88,4.88,5.87,10.89,5.79,16.98h-221.61c-8.83,0-15.98,7.16-15.99,15.99,0,8.84,7.15,16.01,15.99,16.01h232.21c4.2,0,8.01-1.64,10.87-4.29,35.88,2.84,72.64-27.24,105.46-54.11,16.71-13.69,39.47-32.36,48.36-32.36,27.56,0,40,13.16,40,42.4,0,34.22-207.56,158.13-305.33,158.13Z"/>
          <path class="cls-3" d="m563.29,265.33c-40.84,0-73.96,33.11-73.96,73.96,0,40.84,33.11,73.96,73.96,73.96h.09c40.89-.1,73.96-33.33,73.87-74.22-.15-40.74-33.21-73.69-73.95-73.69Zm0,116.27c-23.17,0-41.96-18.78-41.96-41.95,0-23.17,18.78-41.96,41.95-41.96v-.44c23.08.05,41.81,18.7,41.96,41.78,0,.21,0,.41,0,.62,0,23.17-18.78,41.96-41.95,41.96Z"/>
          <path class="cls-3" d="m397.42,280.53c40.72-.2,73.64-33.24,73.69-73.96,0-.09,0-.18,0-.27-.15-40.84-33.38-73.84-74.22-73.69-40.84.15-73.84,33.38-73.69,74.22.15,40.84,33.38,73.84,74.22,73.69Zm0-115.56v-.36c.12,0,.24,0,.36,0,23.17.2,41.79,19.14,41.6,42.31,0,23.17-18.78,41.96-41.96,41.96s-41.96-18.78-41.96-41.96,18.78-41.96,41.96-41.96Z"/>
          <path class="cls-3" d="m563.29,147.91c40.82-.05,73.91-33.13,73.96-73.96,0-40.84-33.11-73.96-73.96-73.96s-73.96,33.11-73.96,73.96c0,40.84,33.11,73.96,73.96,73.96Zm0-115.56v-.36c.06,0,.12,0,.18,0,23.22.15,41.92,19.09,41.78,42.31h0c0,23.17-18.78,41.96-41.96,41.96s-41.96-18.78-41.96-41.96c0-23.17,18.78-41.96,41.96-41.96Z"/>
        </g>
      </g>
    </g>
  </g>
</svg>