<?xml version="1.0" encoding="UTF-8"?>
<svg id="Layer_2" data-name="Layer 2" xmlns="http://www.w3.org/2000/svg" xmlns:xlink="http://www.w3.org/1999/xlink" viewBox="0 0 92.69 21.84">
  <defs>
    <style>
      .cls-1 {
        fill: url(#linear-gradient);
      }
    </style>
    <linearGradient id="linear-gradient" x1="0" y1="10.92" x2="92.69" y2="10.92" gradientUnits="userSpaceOnUse">
      <stop offset="0" stop-color="#6aa5ff"/>
      <stop offset=".07" stop-color="#6fa3ff"/>
      <stop offset=".17" stop-color="#809eff"/>
      <stop offset=".29" stop-color="#9c95ff"/>
      <stop offset=".41" stop-color="#c38aff"/>
      <stop offset=".51" stop-color="#e97fff"/>
      <stop offset=".56" stop-color="#ec7edf"/>
      <stop offset=".64" stop-color="#f27caf"/>
      <stop offset=".71" stop-color="#f67b86"/>
      <stop offset=".79" stop-color="#fa7b67"/>
      <stop offset=".87" stop-color="#fc7a51"/>
      <stop offset=".94" stop-color="#fe7a43"/>
      <stop offset="1" stop-color="#ff7a3f"/>
    </linearGradient>
  </defs>
  <g id="Layer_1-2" data-name="Layer 1">
    <path class="cls-1" d="m58.19,1.29c-1.57,0-2.69,1.07-2.69,2.55,0,1.15.78,1.85,2.04,1.85,1.51,0,2.66-1.09,2.66-2.58,0-1.12-.78-1.82-2.01-1.82Zm-3.11,6.45l-2.42,13.73h4.04l2.41-13.73h-4.03Zm-8.11,5.35q-1.43-.5-1.76-.67c-.37-.23-.56-.51-.56-.9,0-.81.78-1.32,2.07-1.32s2.3.34,3.45,1.1l1.65-2.58c-1.37-.9-3.14-1.35-5.21-1.35-3.45,0-5.63,1.66-5.63,4.32,0,1.12.47,2.16,1.28,2.83.73.62,1.46.95,3.56,1.6.99.31,1.35.64,1.35,1.23,0,1.09-.92,1.65-2.72,1.65-1.6,0-2.91-.33-3.9-.98l-1.71,2.72c1.46.73,3.34,1.1,5.75,1.1,2.27,0,3.81-.42,4.82-1.29.93-.79,1.46-1.99,1.46-3.28,0-2.08-.98-3.14-3.9-4.18Zm41.04-5.72c-1.85,0-2.94.42-4.35,1.71l.03-1.34h-3.61l-2.41,13.73h4.03l1.18-6.64c.53-3.14,1.54-4.32,3.64-4.32,1.35,0,2.08.67,2.08,1.88,0,.45-.09,1.18-.23,1.99l-1.26,7.09h4.04l1.15-6.58c.25-1.3.39-2.7.39-3.48,0-2.58-1.68-4.04-4.68-4.04ZM2.1,8.67l-.74,4.5h4.21l.74-4.5H2.1ZM3.53,0l-.92,5.61h4.2l.92-5.61H3.53ZM.86,16.22l-.86,5.25h4.2l.87-5.25H.86ZM11.91,0l-3.79,21.47h4.04L15.95,0h-4.04Zm22.84,7.74l-1.17,6.64c-.26,1.51-.54,2.38-.96,3.03-.56.84-1.43,1.29-2.52,1.29-1.29,0-1.93-.56-1.93-1.69,0-.5.08-1.26.22-2.07l1.26-7.2h-4.01l-1.17,6.67c-.23,1.23-.4,2.77-.4,3.53,0,2.52,1.6,3.9,4.52,3.9,1.82,0,2.83-.4,4.17-1.71v1.34h3.59l2.44-13.73h-4.04ZM19.5,0l-3.78,21.47h4.04L23.54,0h-4.04Zm49.73,7.37c-5.21,0-8.61,3.31-8.61,8.36,0,3.81,2.61,6.11,7.01,6.11,5.13,0,8.52-3.34,8.52-8.38,0-3.73-2.66-6.09-6.92-6.09Zm4.59,6.14l-.45,2.11h-1.52l-1.26,2.86h-2.3l-.1-3.45-1.56,3.45h-2.3l-.05-2.86h-1.53l.45-2.11h1.05l-.04-2.78h2.47l-.19,3.65,1.62-3.65h2.01l.06,3.63,1.36-3.63h2.47l-1.23,2.78h1.04Z"/>
  </g>
</svg>