<?xml version="1.0" encoding="UTF-8"?>
<svg id="Layer_2" data-name="Layer 2" xmlns="http://www.w3.org/2000/svg" viewBox="0 0 800.08 662.22">
  <defs>
    <style>
      .cls-1 {
        fill: #576065;
      }

      .cls-2 {
        fill: #ffdac6;
      }

      .cls-3 {
        fill: #ffeb97;
      }
    </style>
  </defs>
  <g id="Layer_1-2" data-name="Layer 1">
    <g id="money-pig">
      <g id="money-pig-2">
        <g id="fill">
          <path class="cls-2" d="m187.19,137.24c-47.64,33.24-80,141.24-85.78,181.87v42.67c3.47,124.44,113.78,213.33,113.78,213.33v56.89c1.96,3.91,0,7.02,3.47,9.42,3.68,2.68,8.01,4.33,12.53,4.8h112v-71.11h128v71.11h113.78c4.59-.39,8.98-2.02,12.71-4.71,2.26-2.23,3.51-5.28,3.47-8.44v-95.29c57.51-32.76,102.01-84.29,126.04-145.96l56.89-26.67v-116.44h-55.11c-17.15-47.16-45.38-89.5-82.31-123.47,22.76-34.13,56.09-81.96,52.09-90.49-6.58-13.96-106.67-21.69-175.2,49.42-40.63-8.45-81.97-13.03-123.47-13.69-21.34-.04-42.65,1.6-63.73,4.89"/>
          <circle class="cls-3" cx="242.39" cy="117.24" r="102.84"/>
        </g>
        <g>
          <circle class="cls-1" cx="592.88" cy="210.84" r="28.62" transform="translate(-32.58 141.85) rotate(-13.28)"/>
          <path class="cls-1" d="m784.08,232.8h-43.82c-16.64-41.08-41.26-78.46-72.44-109.96l1.6-2.49c40.8-61.33,50.49-78.4,43.82-92.44-4.09-8.62-13.96-14.13-30.13-16.8-60.37-6.52-120.55,13.79-164.62,55.56-39.05-7.39-78.66-11.47-118.4-12.18-18.89-.3-37.78.9-56.48,3.55C323.24,23.32,285.54,0,242.39,0c-64.75,0-117.24,52.49-117.24,117.24,0,19.07,4.56,37.07,12.63,52.99-28.81,37.79-46.39,82.95-50.68,130.3-35.02-8.09-54.4-28.62-55.11-39.2-.44-6.76,10.04-10.4,16.36-12,7.98-2.35,12.82-10.42,11.15-18.56-1.77-8.66-10.23-14.24-18.89-12.46C.79,228-.46,255.47.08,263.56c2.13,31.29,38.58,60.44,85.33,69.33v29.33c3.56,114.58,89.78,199.02,113.69,220.27v49.33c0,1.88.33,3.75.98,5.51.1,7.3,3.97,14.02,10.22,17.78,6.17,4.26,13.4,6.73,20.89,7.11h112c8.84,0,16-7.16,16-16v-55.11h96v55.11c0,8.84,7.16,16,16,16h113.78c8.83-.18,17.34-3.31,24.18-8.89,5.44-5.22,8.5-12.46,8.44-20v-86.67c54.96-33.57,97.9-83.66,122.67-143.11l50.93-23.56c5.5-2.73,8.95-8.35,8.89-14.49v-116.71h0c0-8.84-7.16-16-16-16ZM242.39,28.8v.09c49.06,0,88.84,39.74,88.89,88.8,0,49.09-39.8,88.89-88.89,88.89s-88.89-39.8-88.89-88.89S193.29,28.8,242.39,28.8Zm525.6,326.58l-47.64,22.04c-3.84,1.75-6.85,4.94-8.36,8.89-22.81,58.16-64.84,106.75-119.11,137.69-4.86,2.89-7.83,8.13-7.82,13.78v92.27h-97.78v-55.11c0-8.84-7.16-16-16-16h-128.18c-8.8.05-15.91,7.2-15.91,16v55.11h-96v-55.02c0-4.83-2.19-9.41-5.96-12.44-1.16-.8-104.62-85.78-107.82-201.33v-41.78c4.05-50.61,16.44-88.46,39.78-121.68,21.37,22.6,51.64,36.7,85.19,36.7,64.71-.1,117.15-52.53,117.24-117.24,0-9.85-1.22-19.41-3.51-28.55,14.58-1.72,29.26-2.47,43.95-2.2,40.06.65,79.97,5.05,119.2,13.16,5.55,1.37,11.41-.32,15.38-4.44,51.11-53.16,121.07-57.33,145.16-52.36-7.2,14.49-25.51,41.96-37.33,59.73l-8.89,13.87c-4.42,6.69-3.21,15.62,2.84,20.89,34.69,32.22,61.22,72.22,77.42,116.71,2.26,6.4,8.32,10.68,15.11,10.67h39.02v90.67Z"/>
          <path class="cls-1" d="m232.25,125.6l9.42,4.71c17.16,8.44,17.78,9.6,17.78,16,0,10.58-10.67,12.18-17.07,12.18s-17.07-1.51-17.07-12.18c0-6.63-5.37-12-12-12s-12,5.37-12,12c0,17.34,11.25,30.47,28.53,34.71v4.04c0,6.63,5.37,12,12,12,.15,0,.3,0,.45,0,6.62-.25,11.79-5.81,11.55-12.44v-3.28c18-3.78,29.69-16.67,29.69-35.2,0-22.22-14.4-29.33-31.11-37.51l-9.42-4.62c-17.16-8.36-17.78-9.51-17.78-15.91,0-11.2,10.84-12.44,17.07-12.44s16.71,1.6,16.71,12.44c0,6.63,5.37,12,12,12s12-5.37,12-12c0-18.1-11.42-31.27-29.16-35.21v-3.45c0-6.63-5.37-12-12-12s-12,5.37-12,12v3.62c-17.33,4.09-28.62,16.95-28.62,35.05,0,22.13,14.4,29.24,31.02,37.51Z"/>
        </g>
      </g>
    </g>
  </g>
</svg>